<svg xmlns="http://www.w3.org/2000/svg" fill="none" viewBox="0 0 140 43" height="43" width="140">
<g clip-path="url(#clip0_569_4236)" id="Logo">
<path fill="#6F8F5F" d="M36.441 39.9895C40.939 40.6743 45.2682 38.7893 47.7994 35.4729C48.4653 36.2314 49.233 36.9051 50.0818 37.4747C46.8179 41.3368 41.5165 43.478 36.0049 42.6389C31.5478 41.9604 27.8526 39.5338 25.584 36.2264C26.4964 35.8184 27.3455 35.302 28.1138 34.6948C29.8756 37.4272 32.8382 39.441 36.441 39.9895ZM42.9897 0.250186C45.4271 0.621258 47.3816 2.40871 48.9425 5.27339C50.1477 7.48517 51.1251 10.3586 51.8728 13.6945L51.9126 13.8736L51.9885 14.2222C52.2145 15.2791 52.4151 16.376 52.5891 17.484C51.4714 17.899 50.4355 18.4722 49.5112 19.1752C49.3169 17.752 49.0772 16.3294 48.7943 14.9781C47.3515 8.0875 45.0101 3.72614 42.4799 3.34096C39.9442 2.95492 36.2826 6.4097 32.6551 12.5286C31.5511 14.3909 30.4916 16.4452 29.5693 18.4435C28.8182 17.6063 27.9424 16.8752 26.9697 16.2769C27.8551 14.4264 28.8426 12.5619 29.869 10.8474C31.7579 7.69214 33.7265 5.08597 35.6947 3.25148C38.1148 0.99566 40.5545 -0.120538 42.9897 0.250186Z" id="Vector"></path>
<path fill="#162833" d="M37.3424 33.5812C36.3637 33.5812 35.4594 33.3407 34.6295 32.8596C33.7998 32.3784 33.1508 31.7269 32.6827 30.905C32.2146 30.083 31.9805 29.2009 31.9805 28.2587C31.9805 27.3166 32.2146 26.4345 32.6827 25.6125C33.1508 24.7906 33.7944 24.1366 34.6136 23.6505C35.4327 23.1643 36.3317 22.9213 37.3104 22.9213C38.3105 22.9213 39.2201 23.1694 40.0393 23.6655C40.8585 24.1616 41.4968 24.8157 41.9543 25.6276C42.4117 26.4395 42.6404 27.3166 42.6404 28.2587C42.6404 29.221 42.4117 30.108 41.9543 30.92C41.4968 31.7319 40.8585 32.3784 40.0393 32.8596C39.2201 33.3407 38.3211 33.5812 37.3424 33.5812Z" clip-rule="evenodd" fill-rule="evenodd" id="Vector_2"></path>
<path fill="#162833" d="M2.69205 34.8167L4.79027 28.9323H12.4574L14.4236 34.8167H17.3003L10.2668 15.171H7.29759L0 34.8167H2.69205ZM11.6128 26.7659H5.54246L8.67 18.0864L11.6128 26.7659ZM25.0466 34.8167L30.378 20.4936H27.7784L23.8326 32.1554L20.0585 20.4936H17.3003L22.5129 34.8167H25.0466ZM52.5346 35.2314C54.1797 35.2314 55.5303 34.7922 56.586 33.914C57.6416 33.0358 58.3015 31.6472 58.5653 29.7481H56.2561C56.0361 30.8091 55.638 31.6449 55.0617 32.2557C54.4856 32.8665 53.7047 33.1717 52.7194 33.1717C51.4349 33.1717 50.4937 32.6815 49.8954 31.7006C49.2972 30.7199 48.9981 29.5119 48.9981 28.0764C48.9981 26.6499 49.2092 25.4507 49.6314 24.479C50.2824 22.9811 51.3645 22.2322 52.8778 22.2322C53.9862 22.2322 54.7913 22.5242 55.2928 23.1082C55.7941 23.6922 56.1153 24.4254 56.2561 25.3081H58.5653C58.3631 23.3912 57.7627 22.0405 56.764 21.2559C55.7656 20.4714 54.4701 20.0791 52.8778 20.0791C51.0127 20.0791 49.4775 20.7789 48.2723 22.1786C47.0669 23.5785 46.4644 25.5355 46.4644 28.0496C46.4644 30.1003 47.0142 31.8099 48.1139 33.1784C49.2135 34.5471 50.6872 35.2314 52.5346 35.2314ZM64.7412 35.2982C65.8322 35.2982 66.8307 35.0619 67.7368 34.5894C68.6431 34.1168 69.3379 33.5596 69.8219 32.9178C69.901 33.4884 70.0375 33.9296 70.231 34.2417C70.6005 34.8301 71.1943 35.1243 72.0125 35.1243C72.3469 35.1243 72.6107 35.111 72.8042 35.0842C72.9977 35.0575 73.2793 34.9907 73.6488 34.8835V33.1049C73.4992 33.1317 73.3585 33.1518 73.2266 33.1652C73.0946 33.1784 72.9758 33.1851 72.8703 33.1851C72.5447 33.1851 72.3314 33.1093 72.2302 32.9578C72.129 32.8062 72.0784 32.6057 72.0784 32.356V24.1045C72.0784 22.7492 71.5639 21.7507 70.5345 21.1088C69.4964 20.4668 68.1459 20.1459 66.4832 20.1459C65.0492 20.1459 63.7889 20.4913 62.7024 21.1824C61.616 21.8734 61.0507 23.1015 61.0067 24.8667H63.2237C63.3117 24.1268 63.5009 23.5695 63.7911 23.1951C64.3102 22.5175 65.19 22.1786 66.4304 22.1786C67.5038 22.1786 68.3285 22.3637 68.9048 22.7337C69.481 23.1036 69.7692 23.6989 69.7692 24.519C69.7692 24.9203 69.7163 25.2278 69.6108 25.4419C69.4259 25.8342 69.0609 26.0659 68.5154 26.1373L64.728 26.6187C63.3997 26.7881 62.3263 27.2383 61.5082 27.9695C60.69 28.7006 60.2809 29.7303 60.2809 31.0588C60.2809 32.2712 60.6966 33.281 61.528 34.0879C62.3594 34.8948 63.4305 35.2982 64.7412 35.2982ZM65.2956 33.2521C64.6093 33.2521 64.0155 33.0514 63.514 32.6503C63.0126 32.249 62.7619 31.7006 62.7619 31.0052C62.7619 30.0869 63.1269 29.4182 63.8572 28.9993C64.2883 28.7496 64.9348 28.5668 65.7971 28.4509L67.2355 28.2637C67.6752 28.2102 68.124 28.121 68.5814 27.9962C69.0389 27.8713 69.4129 27.7153 69.7031 27.5282V29.4673C69.7031 30.9473 69.0434 32.0127 67.7237 32.6637C66.9407 33.0559 66.1313 33.2521 65.2956 33.2521ZM80.788 35.325C81.7646 35.325 82.6312 35.1288 83.3878 34.7366C84.1444 34.3443 84.7997 33.7067 85.3539 32.824V34.8167H87.4918V15.104H85.2089V22.3392C84.6721 21.6706 84.1927 21.2024 83.7705 20.935C83.0402 20.4714 82.1341 20.2395 81.052 20.2395C79.0989 20.2395 77.5967 21.0041 76.5454 22.533C75.494 24.0621 74.9684 25.8698 74.9684 27.9561C74.9684 30.1851 75.5446 31.9704 76.6972 33.3122C77.8497 34.6541 79.2133 35.325 80.788 35.325ZM81.527 33.2253C80.1107 33.2253 79.0813 32.7082 78.4391 31.674C77.7968 30.6397 77.4758 29.3558 77.4758 27.8223C77.4758 26.0213 77.8474 24.6572 78.5908 23.7301C79.3343 22.8028 80.3042 22.3392 81.5006 22.3392C82.574 22.3392 83.4758 22.7737 84.2059 23.643C84.9361 24.5123 85.3012 25.852 85.3012 27.6619C85.3012 29.4539 84.947 30.8292 84.239 31.7877C83.5307 32.7461 82.6267 33.2253 81.527 33.2253ZM96.5181 35.325C97.2396 35.325 97.8861 35.2536 98.458 35.111C99.5225 34.8613 100.415 34.3799 101.137 33.6665C101.568 33.2565 101.957 32.7282 102.305 32.0818C102.652 31.4354 102.857 30.8493 102.918 30.3232H100.583C100.407 30.9562 100.107 31.5135 99.6853 31.9949C98.9463 32.824 97.9565 33.2387 96.716 33.2387C95.3877 33.2387 94.4066 32.7995 93.7733 31.9214C93.1399 31.0431 92.8011 29.8774 92.7571 28.4241H103.116C103.116 26.9798 103.046 25.9277 102.905 25.268C102.747 24.3051 102.43 23.4626 101.955 22.7404C101.462 21.9825 100.745 21.3652 99.804 20.8881C98.8626 20.4111 97.8906 20.1727 96.8876 20.1727C94.8994 20.1727 93.2894 20.8904 92.0578 22.3258C90.8261 23.7613 90.2102 25.629 90.2102 27.9293C90.2102 30.2653 90.8216 32.0818 92.0445 33.3791C93.2673 34.6763 94.7586 35.325 96.5181 35.325ZM100.675 26.5117H92.8232C92.867 25.2814 93.2586 24.2672 93.9976 23.4693C94.7367 22.6713 95.6515 22.2724 96.7424 22.2724C98.2645 22.2724 99.3509 22.8518 100.002 24.0108C100.354 24.635 100.578 25.4685 100.675 26.5117ZM108.408 34.8167V27.2205C108.408 25.3749 108.775 24.1 109.51 23.3956C110.245 22.6914 111.06 22.3392 111.958 22.3392C112.943 22.3392 113.616 22.6735 113.977 23.3422C114.206 23.788 114.32 24.4968 114.32 25.4685V34.8167H116.735V26.485C116.735 25.005 117.071 23.9484 117.744 23.3154C118.417 22.6824 119.22 22.3659 120.153 22.3659C120.83 22.3659 121.404 22.5443 121.875 22.9008C122.345 23.2575 122.581 23.9128 122.581 24.8667V34.8167H125.049V25.2814C125.049 24.0154 124.864 23.0079 124.494 22.259C123.808 20.8681 122.515 20.1727 120.615 20.1727C119.726 20.1727 118.925 20.3577 118.213 20.7276C117.5 21.0977 116.88 21.666 116.352 22.4327C116.035 21.8087 115.684 21.3361 115.296 21.0152C114.61 20.4534 113.704 20.1727 112.578 20.1727C111.584 20.1727 110.695 20.4446 109.912 20.9884C109.455 21.3093 108.945 21.8221 108.382 22.5265V20.4936H106.033V34.8167H108.408ZM129.799 40.6878C131.172 40.6878 132.139 40.2865 132.702 39.4842C133.266 38.6817 134.233 36.4528 135.606 32.7974C136.186 31.246 136.908 29.24 137.77 26.7792C138.922 23.5071 139.666 21.4119 140 20.4936H137.374L133.56 32.1554L129.773 20.4936H127.081L132.307 35.2314C132.183 35.5523 131.986 36.0427 131.713 36.7025C131.44 37.3623 131.282 37.7278 131.238 37.7991C131.097 38.0131 130.923 38.1935 130.716 38.3407C130.51 38.4878 130.186 38.5613 129.746 38.5613C129.606 38.5613 129.443 38.5479 129.258 38.5213C129.073 38.4945 128.774 38.4231 128.361 38.3072V40.5006C128.625 40.5718 128.847 40.621 129.027 40.6476C129.208 40.6744 129.465 40.6878 129.799 40.6878Z" id="Vector_3"></path>
</g>
<defs>
<clipPath id="clip0_569_4236">
<rect transform="translate(0 0.180176)" fill="white" height="42.6396" width="140"></rect>
</clipPath>
</defs>
</svg>
