<svg xmlns="http://www.w3.org/2000/svg" viewBox="171.327 33.781 657.108 928.771" role="img" aria-hidden="true" focusable="false">
  <path fill="#000" d="M509 211.57C503.17 57.05 721 79.86 812.16 138c40.69 29.63-39.74 29.13-51.69 48.21-26.05 24.34-40.16 58.44-68 81.38C623 334 599 298.65 530.49 289.14c-32.27 53.22 102.33 52.15 141.69 83.76 8.23 6.61 16.72 12.88 25.31 19C967.83 584.65 786.07 1004.82 457 959.1 93.53 915 69.21 414.53 428.31 335.81c13.9-6.28 42.35-8.24 47.59-21.58-3.13-27-8.09-60.26-25.69-81.25-34.45 10.02-72.46 19.75-109.21 6.1-68.6-29.61-80.39-121.46-152-146.78-28-23.39 33.05-33 52.16-40.94 3.12-1.29 6.25-2.57 9.44-3.69 64-22.41 140.91-19 197.59 19.77 50.31 29.5 47 95.77 24.68 140.83 16.74 40.49 42.51 69.54 36.13 3.3M210.33 659.94c-2.78 45.44 10.87 88 33.94 126.52a22.9 22.9 0 0 0 37.36 2.6c23.63-29 58.74-79.21 131.62-25.85 50.91 50.56 19.65 95.33 83.22 114.74a290 290 0 0 1 55.34 23.89c99.12 54.67 292.9-195 186-160.14-28.66 12.88-16.78 57.87-42.59 76-47.29 45.1-109 14.11-127.18-39.29a73.45 73.45 0 0 0-39-42.9c-39.75-18.22-86.54-31.26-67.61-91.72 15.08-48.2 59.56-47 98.73-50.41 32.71-2.87 58.77-29 60.91-61.72 7.12-108.91 92.58-87.79 46.26-118.83a150 150 0 0 0-15.11-8.83c-72.84-37.28-178.87-61.89-251.7-21.39a22.35 22.35 0 0 0-9.07 29.58c19.9 39.28 94.6 8.48 125.39 41 60.87 47.62 5.81 121.37-60 114.81-96.5-18.32-59.64 94.86-136.14 112.8C225 710.93 211.76 531 211 638.42c0 7.18-.23 14.36-.67 21.52m344.72-30.31c-37.36-5.92-82.85 30.92-43.8 62.87 23 10.59 50.64 11.35 70.13 29.15C600 740.1 604 765.59 612.55 788.48c50.41 57.1 66.9-30.16 88.66-62.37 15.48-18.6 40.86-25.25 64-26.91 62.24-19.74 18.29-119.62 3.9-163.64-9.23-51.37-86.82-102.45-102.69-38.15a64 64 0 0 0-1.66 17.79c2.39 61.9-31.74 118.58-98.31 115.73a99 99 0 0 1-11.4-1.3M459.4 528c27.17 3.37 51.26-13.06 43.71-34.84-3.44-9.93-12.32-16.89-22.66-18.76-9.32-1.68-18.94-2.14-28.59-2.44a125.34 125.34 0 0 1-95.11-48.68c-20.21-26-20.91-14.72-67.23 25.07-11.75 14.18-29.75 30.65-42.76 48.62a64.77 64.77 0 0 0-3.69 69.56c20.08 36.06 22.4 93.34 77.82 75.86C374 573.84 341.79 535.11 459.4 528m196.1-401.81c-91.29-14.35-167.26 122.39-75.09 84.81 19.17 16.8-50.64 31.76 3.14 54.64 54.55 21.9 100.39-32.24 125.61-74.14 62.57-58.29-2.53-60.94-53.66-65.31m-330-56.07c-37.32-1.44-82.38 7.24-44.67 50 24.9 42.62 63 109.29 121.79 92.14 40.13-13.18 15.6-29 6-52.26 18.11-5.31 45.13 44.38 47.16-21.76-13.6-58.16-79.89-66.34-130.27-68.12ZM484.42 926c81.93-3.63-45.34-21.54-58-52.46-.56-1.38-1.14-2.74-1.82-4.06-22.82-44.3-20.73-111.09-93.6-85.48-96.13 86.89 85.16 139.66 153.42 142"/>
</svg>
